<svg width="148" height="50" viewBox="0 0 148 50" fill="none" xmlns="http://www.w3.org/2000/svg">
<path d="M63.4025 19.77V29.5H61.8065V22.836L58.8385 29.5H57.7325L54.7505 22.836V29.5H53.1545V19.77H54.8765L58.2925 27.4L61.6945 19.77H63.4025ZM67.0962 19.77V29.5H65.5002V19.77H67.0962ZM77.1856 29.5H75.5896L70.7876 22.234V29.5H69.1916V19.756H70.7876L75.5896 27.008V19.756H77.1856V29.5ZM85.1474 27.512H81.0734L80.3734 29.5H78.7074L82.1934 19.756H84.0414L87.5274 29.5H85.8474L85.1474 27.512ZM84.6994 26.21L83.1174 21.688L81.5214 26.21H84.6994ZM95.3292 19.77V21.072H92.7392V29.5H91.1432V21.072H88.5392V19.77H95.3292Z" fill="white"/>
<rect x="1" y="1" width="146" height="48" rx="12" stroke="#2684FF"/>
</svg>
