<svg width="148" height="50" viewBox="0 0 148 50" fill="none" xmlns="http://www.w3.org/2000/svg">
<path d="M36.163 29.5L32.397 25.146V29.5H30.801V19.77H32.397V24.208L36.177 19.77H38.179L33.951 24.642L38.249 29.5H36.163ZM41.2564 21.058V23.914H44.6164V25.216H41.2564V28.198H45.0364V29.5H39.6604V19.756H45.0364V21.058H41.2564ZM57.2501 19.77V29.5H55.6541V22.836L52.6861 29.5H51.5801L48.5981 22.836V29.5H47.0021V19.77H48.7241L52.1401 27.4L55.5421 19.77H57.2501ZM65.2139 27.512H61.1399L60.4399 29.5H58.7739L62.2599 19.756H64.1079L67.5939 29.5H65.9139L65.2139 27.512ZM64.7659 26.21L63.1839 21.688L61.5879 26.21H64.7659ZM79.3576 19.77V29.5H77.7616V22.836L74.7936 29.5H73.6876L70.7056 22.836V29.5H69.1096V19.77H70.8316L74.2476 27.4L77.6496 19.77H79.3576ZM88.2593 22.668C88.2593 23.1627 88.1426 23.6293 87.9093 24.068C87.6759 24.5067 87.3026 24.866 86.7893 25.146C86.2759 25.4167 85.6179 25.552 84.8153 25.552H83.0513V29.5H81.4553V19.77H84.8153C85.5619 19.77 86.1919 19.9007 86.7053 20.162C87.2279 20.414 87.6153 20.7593 87.8673 21.198C88.1286 21.6367 88.2593 22.1267 88.2593 22.668ZM84.8153 24.25C85.4219 24.25 85.8746 24.1147 86.1733 23.844C86.4719 23.564 86.6213 23.172 86.6213 22.668C86.6213 21.604 86.0193 21.072 84.8153 21.072H83.0513V24.25H84.8153ZM91.3634 19.77V25.972C91.3634 26.7093 91.5548 27.2647 91.9374 27.638C92.3294 28.0113 92.8708 28.198 93.5614 28.198C94.2614 28.198 94.8028 28.0113 95.1854 27.638C95.5774 27.2647 95.7734 26.7093 95.7734 25.972V19.77H97.3694V25.944C97.3694 26.7373 97.1968 27.4093 96.8514 27.96C96.5061 28.5107 96.0441 28.9213 95.4654 29.192C94.8868 29.4627 94.2474 29.598 93.5474 29.598C92.8474 29.598 92.2081 29.4627 91.6294 29.192C91.0601 28.9213 90.6074 28.5107 90.2714 27.96C89.9354 27.4093 89.7674 26.7373 89.7674 25.944V19.77H91.3634ZM105.313 27.512H101.239L100.539 29.5H98.8735L102.359 19.756H104.207L107.693 29.5H106.013L105.313 27.512ZM104.865 26.21L103.283 21.688L101.687 26.21H104.865ZM117.203 29.5H115.607L110.805 22.234V29.5H109.209V19.756H110.805L115.607 27.008V19.756H117.203V29.5Z" fill="white"/>
<rect x="1" y="1" width="146" height="48" rx="12" stroke="#2684FF"/>
</svg>
