<svg width="24" height="24" viewBox="0 0 24 24" fill="none" xmlns="http://www.w3.org/2000/svg">
<path d="M4.88686 17.7022C6.98081 19.8476 9.45926 21.21 11.0529 21.755C11.3618 21.8629 11.7053 21.8999 12 21.8999C12.2947 21.8999 12.6382 21.8629 12.9471 21.755C14.5407 21.21 17.0192 19.8476 19.1131 17.7022C21.2209 15.5426 23 12.5226 23 8.68994C23 5.05234 20.067 2.09995 16.44 2.09995C14.7309 2.09995 13.1672 2.76383 12.0005 3.84733C10.8364 2.76423 9.27774 2.09995 7.56 2.09995C3.93305 2.09995 1 5.05234 1 8.68994C1 12.5226 2.77909 15.5426 4.88686 17.7022Z" fill="#5786FF" stroke="#5786FF" stroke-width="2" stroke-linecap="round" stroke-linejoin="round"/>
</svg>
